<svg width="73" height="73" viewBox="0 0 73 73" fill="none" xmlns="http://www.w3.org/2000/svg">
<g clip-path="url(#clip0)">
<path fill-rule="evenodd" clip-rule="evenodd" d="M57.8339 73.001H15.0762C6.89866 73.001 0.269554 66.3719 0.269554 58.1944V14.8778C0.269554 6.70051 6.89866 0.0712891 15.0762 0.0712891H57.8339C66.0113 0.0712891 72.6405 6.70051 72.6405 14.8778V58.1944C72.6405 66.3719 66.0113 73.001 57.8339 73.001Z" fill="url(#paint0_linear)"/>
<path d="M36.5 6L43.3477 27.075H65.5072L47.5798 40.1L54.4275 61.175L36.5 48.15L18.5725 61.175L25.4202 40.1L7.49278 27.075H29.6523L36.5 6Z" fill="white"/>
<path d="M47.5798 40.1L49.5 46L36.5 48.15L47.5798 40.1Z" fill="#B70E55"/>
</g>
<defs>
<linearGradient id="paint0_linear" x1="0.269554" y1="73.001" x2="36.4551" y2="36.5362" gradientUnits="userSpaceOnUse">
<stop stop-color="#ED6950"/>
<stop offset="1" stop-color="#E84883"/>
</linearGradient>
<clipPath id="clip0">
<rect width="73" height="73" fill="white"/>
</clipPath>
</defs>
</svg>
